<svg xmlns="http://www.w3.org/2000/svg" width="9" height="6" viewBox="0 0 9 6" fill="none">
  <path fill-rule="evenodd" clip-rule="evenodd" d="M6.29667 5.03988C5.83884 5.49087 5.23643 5.76471 4.57646 5.76471C3.79765 5.76471 3.09899 5.38337 2.62349 4.77956C2.42945 4.88314 2.21201 4.94117 1.98235 4.94117C1.16367 4.94117 0.5 4.20375 0.5 3.29411C0.5 2.38446 1.16367 1.64705 1.98235 1.64705C2.06425 1.64705 2.14458 1.65444 2.22286 1.66863C2.63517 0.683212 3.53401 0 4.57646 0C5.42239 0 6.17375 0.449898 6.6473 1.14609C6.77605 1.11464 6.90981 1.09805 7.04706 1.09805C8.07042 1.09805 8.90001 2.01982 8.90001 3.15688C8.90001 4.29393 8.07042 5.2157 7.04706 5.2157C6.77996 5.2157 6.52607 5.1529 6.29667 5.03988Z" fill="url(#paint0_linear_7556_12)"/>
  <defs>
    <linearGradient id="paint0_linear_7556_12" x1="4.7" y1="0" x2="4.7" y2="5.76471" gradientUnits="userSpaceOnUse">
      <stop stop-color="#FFF48F"/>
      <stop offset="1" stop-color="#FFFEEA" stop-opacity="0"/>
    </linearGradient>
  </defs>
</svg>