<svg xmlns="http://www.w3.org/2000/svg" width="6" height="7" viewBox="0 0 6 7" fill="none">
  <path d="M3.32036 0.929643C3.51025 0.635015 3.93164 0.715426 4.01705 1.06259L4.31895 2.28973C4.35367 2.43088 4.45331 2.54256 4.58239 2.58504L5.7047 2.95435C6.02221 3.05883 6.08178 3.51756 5.8032 3.71278L4.81848 4.40283C4.70522 4.4822 4.63789 4.6193 4.64047 4.76533L4.66285 6.03503C4.66918 6.39423 4.28461 6.59732 4.02703 6.37081L3.11654 5.57014C3.01182 5.47805 2.87057 5.4511 2.74308 5.49888L1.6346 5.91428C1.32101 6.0318 1.02375 5.69859 1.14314 5.36338L1.56515 4.17849C1.61369 4.04221 1.59372 3.88845 1.51235 3.77194L0.804894 2.75898C0.604752 2.47241 0.805608 2.06338 1.13698 2.08272L2.30828 2.15108C2.443 2.15895 2.57191 2.09087 2.64911 1.97109L3.32036 0.929643Z" fill="url(#paint0_linear_7556_26)"/>
  <defs>
    <linearGradient id="paint0_linear_7556_26" x1="3.80091" y1="0.184057" x2="2.45896" y2="7.21641" gradientUnits="userSpaceOnUse">
      <stop stop-color="#ADDDFF"/>
      <stop offset="1" stop-color="#EDF6FF" stop-opacity="0"/>
    </linearGradient>
  </defs>
</svg>